<svg width="292" height="280" viewBox="0 0 292 280" fill="none" xmlns="http://www.w3.org/2000/svg">
<g id="evenements 1">
<g id="Group">
<path id="Vector" d="M137 12.6C135.6 12.8 131.1 13.5 127 14.1C116.1 15.7 102 20.5 90 26.6C54.5 44.7 29.8 77.8 22.5 116.9C20.5 127.7 20.5 149.1 22.5 160.6C33.8 224.9 94.4 270.8 160.5 265C239.3 258.1 292.9 185.2 275 109.3C266.7 74.1 241.9 43.2 208.4 26C199.3 21.4 185.5 16.6 175 14.5C167.6 13 141.9 11.7 137 12.6ZM190.1 57.8C192.5 59.9 193.3 61.6 193.7 65.4L194.3 70.2L199.9 64.6C203 61.5 205.9 59 206.3 59C207.2 59 223.3 75.7 223.8 77.1C224.4 78.6 212.6 90.1 211.5 89.2C211 88.8 206.8 84.6 202.3 79.9C197.2 74.6 194 71.9 194 72.9C194 73.9 195.4 75.9 197.1 77.6C198.8 79.2 202.5 83.1 205.3 86.3L210.3 92.1L202.2 100.3L194 108.5V134.6C194 151.1 193.6 161.9 192.9 163.9C190.8 170 190.7 170 141.5 170H96.8L93.9 167.1L91 164.2V125.3V86.5L109.1 70.7L127.3 55H157.1H187L190.1 57.8ZM81 181.9C79.8 184.2 78.1 185.4 77.4 184.7C76.4 183.8 79 180 80.6 180C81.7 180 81.8 180.4 81 181.9ZM111 187.9C109.8 190.2 108.1 191.4 107.4 190.7C106.4 189.8 109 186 110.6 186C111.7 186 111.8 186.4 111 187.9ZM86 188C86 188.5 83.5 189 80.5 189H75V193V197H79.6C85.5 197 85.1 199.4 79.2 199.8C75.2 200.1 75 200.2 75 203.5C75 206.9 75 206.9 80.3 207.2C87.8 207.6 86.7 209.4 78.8 209.8L72 210.1V198.5V187H79C83 187 86 187.4 86 188ZM215 191.5C215 193.1 215.6 194 216.5 194C217.3 194 218 194.4 218 195C218 195.5 217.3 196 216.5 196C215.4 196 215 197.3 215 201.4C215 205.3 215.4 206.9 216.5 207.4C218.6 208.2 218.4 210 216.2 210C213.1 210 212 207.8 212 201.9C212 198.3 211.5 196 210.8 195.6C209.8 195.1 209.8 194.9 210.8 194.4C211.4 194.1 212 192.7 212 191.4C212 189.9 212.6 189 213.5 189C214.4 189 215 189.9 215 191.5ZM113.8 197.4C115.9 201.6 114.8 203 109.5 203C105.6 203 104.9 203.3 105.2 204.7C105.5 206.1 106.5 206.5 109.8 206.4C114.2 206.3 114.8 206.8 112.8 208.8C110.9 210.7 106.2 210.2 104 208C101.8 205.8 101.3 200.2 103.1 196.9C105.5 192.4 111.5 192.7 113.8 197.4ZM146.8 197.4C148.9 201.6 147.8 203 142.5 203C138.6 203 137.9 203.3 138.2 204.7C138.5 206.1 139.5 206.5 142.8 206.4C147.2 206.3 147.8 206.8 145.8 208.8C144.5 210.1 140.1 210.4 138.4 209.2C136.6 208.1 135 204.3 135 201.5C135 193.6 143.5 190.6 146.8 197.4ZM166.8 194.3C170.3 193.8 171 194.1 172.5 196.3C173.6 198 174 200.4 173.8 204.1C173.4 211.8 171.2 211.7 170.8 203.9C170.6 199.4 170 197.4 168.8 196.7C165.8 194.8 164 197.5 164 204.2C164 208.5 163.7 210.1 162.8 209.8C162 209.5 161.7 207.9 161.8 205.4C162.3 199.6 160.5 195.8 157.7 196.2C155.7 196.5 155.4 197.2 155 202.9C154.7 206.8 154 209.5 153.3 209.8C152.3 210.1 152 208.1 152 202.1V194.1L155.3 193.8C157 193.6 159.5 193.8 160.6 194.2C161.8 194.5 164.5 194.6 166.8 194.3ZM205.8 195.8C206.5 196.7 207 200.1 207 203.7C207 208.6 206.7 210 205.5 210C204.4 210 204 208.7 204 204.6C204 197.9 203.3 196 200.9 196C198.3 196 197 199 197 204.9C197 207.7 196.6 210 196 210C195.4 210 195 206.6 195 201.9C195 195.8 195.3 193.9 196.3 194.3C196.9 194.5 198.4 194.4 199.5 194C201.9 193.1 204.1 193.8 205.8 195.8ZM231.8 195.8C232 196.6 230.9 196.9 228.4 196.7C225.6 196.6 224.5 196.9 224.2 198.1C224 199.3 224.9 199.9 227.8 200.4C233 201.2 234.7 205.1 231.4 208.4C228.9 211 221 210.3 221 207.5C221 206.6 222.3 206.4 225.5 206.8C229.6 207.2 230 207.1 230 205.1C230 203.4 229.4 203 227.1 203C221.3 203 219 196.8 223.8 194.4C226.4 193.1 231.1 193.9 231.8 195.8ZM92 200L93.7 205.5L95.5 199.7C96.5 196.6 98 194 98.7 194C100.5 194 100.4 194.4 97.4 202.8C95.9 206.8 94.2 209.9 93.6 209.7C93 209.5 91.3 205.9 89.8 201.6C87.5 195.1 87.3 193.9 88.6 194.2C89.6 194.4 90.9 196.7 92 200ZM130 195.9C131.5 198.8 131.3 210.3 129.8 209.8C129 209.5 128.3 206.8 128 202.9C127.5 196.9 127.4 196.5 125 196.5C122.6 196.5 122.5 196.9 122 202.9C121.7 206.8 121 209.5 120.3 209.8C119.3 210.1 119 208.1 119 202.1V194H124C127.8 194 129.2 194.4 130 195.9ZM188.4 195.6C189.3 196.4 190 198.5 190 200.1C190 202.9 189.9 203 185 203C180.1 203 180 203.1 181.1 205.1C182 206.8 182.8 207.1 185.6 206.7C189.5 206 191 207.4 188.1 208.9C182.8 211.8 178 208.5 178 201.8C178 199.4 178.7 196.9 179.7 195.8C181.7 193.6 186.3 193.4 188.4 195.6Z" fill="#C31A1A"/>
<path id="Vector_2" d="M131 74.3C131 84.1 130.6 89 129.8 89.8C129 90.6 123.6 91 112.3 91H96V126.4C96 157.3 96.2 162.1 97.6 163.4C99 164.8 104.4 165 142.4 165C174.7 165 185.9 164.7 186.8 163.8C187.7 162.9 188 155.8 188 138.1V113.6L172 129.4C161 140.3 155.7 144.9 154.8 144.3C154.1 143.9 149.9 139.8 145.5 135.2L137.6 126.9L162.8 101.7L188 76.5V69.3C188 63.2 187.7 61.9 186.1 61C184.9 60.4 174 60 157.6 60H131V74.3ZM175 80.5C176 81.7 176 82.3 175 83.5C174 84.7 170.4 85 154.5 85C143.8 85 134.5 84.7 133.6 84.4C131.7 83.7 131.5 80.4 133.3 79.7C133.9 79.4 143.3 79.1 154.1 79.1C170.4 79 174 79.3 175 80.5ZM160.5 99.5C160.5 101.4 159.7 101.5 134.4 101.8C112.4 102 108.1 101.8 107 100.6C104.3 97.3 106.8 97 133.8 97.2C159.7 97.5 160.5 97.6 160.5 99.5ZM143.5 114C143.9 114.6 143.6 115.7 143 116.5C142 117.7 138.4 118 125 118C111.6 118 108 117.7 107 116.5C104.5 113.5 107 113 125 113C136.3 113 143.1 113.4 143.5 114ZM130.4 129.6C132.5 130.4 132.5 133.6 130.4 134.4C129.5 134.7 124.2 135 118.5 135C110.6 135 108 134.7 107 133.5C106 132.3 106 131.7 107 130.5C108 129.3 110.6 129 118.5 129C124.2 129 129.5 129.3 130.4 129.6ZM144.8 138.1C148.8 142.3 152 146.2 152 146.8C152 147.4 149.4 148.6 146.3 149.5C143.1 150.4 138.1 151.9 135.3 152.7C132.4 153.6 129.7 154.1 129.4 153.7C128.3 152.6 135.2 129.9 136.4 130.2C137.1 130.4 140.8 133.9 144.8 138.1ZM126.5 148.5C126.5 150.3 125.7 150.5 117.1 150.8C107.5 151.1 105.5 150.4 106.7 147.3C107.1 146.2 109.4 146 116.9 146.2C125.7 146.5 126.5 146.7 126.5 148.5Z" fill="#C31A1A"/>
<path id="Vector_3" d="M112.7 74.5L100.9 85H113.5H126.2L125.8 74.5C125.6 68.7 125.3 64 125 64.1C124.7 64.1 119.2 68.8 112.7 74.5Z" fill="#C31A1A"/>
<path id="Vector_4" d="M105.7 196.7C103.9 198.4 105.2 200 108.5 200C112.2 200 112.8 199.2 110.8 197.2C109.5 195.9 106.7 195.6 105.7 196.7Z" fill="#C31A1A"/>
<path id="Vector_5" d="M139.2 197.2C137.2 199.2 137.8 200 141.5 200C143.4 200 145 199.6 145 199.2C145 198 142.8 196 141.5 196C140.9 196 139.9 196.5 139.2 197.2Z" fill="#C31A1A"/>
<path id="Vector_6" d="M181 198C180 199.8 180.2 200 184 200C187.8 200 188 199.8 187 198C186.4 196.9 185.1 196 184 196C182.9 196 181.6 196.9 181 198Z" fill="#C31A1A"/>
</g>
</g>
</svg>
