<svg width="77" height="84" viewBox="0 0 77 84" fill="none" xmlns="http://www.w3.org/2000/svg">
<path d="M35.2228 10.4002C27.0359 11.4302 20.2318 16.6502 19.1512 22.7432C18.7391 25.0302 19.1695 26.6974 20.4424 27.806C22.4296 29.5431 26.0469 29.5519 27.9242 27.8322C28.6568 27.1688 29.0505 26.549 30.2685 24.166C31.1568 22.4376 31.6879 21.6607 32.4755 20.9188C33.9682 19.5221 36.0286 18.9111 38.8858 19.0246C41.1477 19.1206 42.8419 19.7316 44.1056 20.91C45.2137 21.9488 45.754 23.0661 45.9463 24.6636C46.3218 27.8148 44.9298 29.8923 39.8932 33.6633C36.0103 36.5701 34.8198 37.635 33.6293 39.2848C31.8894 41.694 31.4498 44.7318 32.5396 46.7918C33.5286 48.6511 35.2594 49.559 37.558 49.428C39.0415 49.3495 39.9206 49.0439 40.7173 48.3456C41.3767 47.7695 41.7064 47.237 42.439 45.5174C43.7027 42.5844 43.9683 42.2964 48.135 39.4245C50.9281 37.5041 51.9079 36.7621 53.135 35.6448C56.7065 32.3888 58.2358 29.3336 58.2267 25.4579C58.2175 20.7966 56.3036 17.0692 52.4849 14.2759C49.6277 12.1809 45.287 10.7581 40.5342 10.3566C39.1422 10.2431 36.3125 10.2605 35.2228 10.4002Z" fill="black"/>
<path d="M36.688 54.4909C33.3912 54.9535 31.0286 57.3191 30.8546 60.3394C30.7447 62.2511 31.3674 63.8485 32.7593 65.1666C34.0506 66.3974 35.5616 66.9997 37.3748 66.9997C38.492 67.0084 39.2979 66.8251 40.3418 66.345C41.0836 65.9959 41.34 65.8213 42.0451 65.1404C43.0158 64.2151 43.5195 63.3597 43.8309 62.1201C44.5543 59.2133 42.8785 56.1407 39.9206 54.9361C38.9774 54.5607 37.6037 54.3687 36.688 54.4909Z" fill="black"/>
</svg>
